<svg xmlns="http://www.w3.org/2000/svg" viewBox="0 0 293.863 327.525">
  <defs>
    <style>
      .cls-1, .cls-2 {
        fill: #fff;
      }

      .cls-2 {
        font-size: 80px;
        font-family: Helvetica;
      }
    </style>
  </defs>
  <g id="Group_183" data-name="Group 183" transform="translate(-4456 -12819.914)">
    <g id="Group_180" data-name="Group 180" transform="translate(4456 12819.914)">
      <path id="Path_98" data-name="Path 98" class="cls-1" d="M185.306,280.982c-2.137-10.723-13.784-22.344-21.758-28.442-.482,4.3,1.381,19.621,13.211,26.057-11.582-1.615-26.774,4.951-29.419,6.814C160.655,291.613,178.166,291.118,185.306,280.982Z" transform="translate(-89.897 -85.885)"/>
      <path id="Path_99" data-name="Path 99" class="cls-1" d="M169.517,276.19c-.3-10.2-9.576-24.025-15.83-30.93-1.3,4.352-2.111,18.839,8.651,27.36-11.9-4.3-26.826-.73-29.458.378C144.658,281.949,161.439,284.294,169.517,276.19Z" transform="translate(-94.276 -88.089)"/>
      <path id="Path_100" data-name="Path 100" class="cls-1" d="M154.243,267.916c1.537-9.628-4.755-25.054-9.3-32.416-3.583,7.335-3.622,19.7,3.635,27.895-11.14-6.931-25.158-6.8-28.155-6.345C130.3,268.632,145.683,273.583,154.243,267.916Z" transform="translate(-98.049 -91.046)"/>
      <path id="Path_101" data-name="Path 101" class="cls-1" d="M140.75,256.362c3.166-8.377.417-24.312-2.958-32.572-2.762,3.909-7.987,15.765-1.133,27.543a44.181,44.181,0,0,0-25.549-12.208C118.784,252.831,132.542,259.489,140.75,256.362Z" transform="translate(-100.869 -94.592)"/>
      <path id="Path_102" data-name="Path 102" class="cls-1" d="M129.689,242.006c4.586-7.322,3.635-23.556,2.449-30.4-5.107,4.508-9.25,13.029-6.749,22.032-5.068-7.335-15.973-13.354-19.7-14.709C110,234.489,122.145,243.166,129.689,242.006Z" transform="translate(-102.511 -98.281)"/>
      <path id="Path_103" data-name="Path 103" class="cls-1" d="M121.165,225.093c4.508-4.339,9.433-17.485,9.55-27.973-7.257,4.312-12.169,12.482-10.853,23.126-3.1-8.456-8.052-16.573-16.612-22.149C104.084,212.781,113.53,224.324,121.165,225.093Z" transform="translate(-103.25 -102.669)"/>
      <path id="Path_104" data-name="Path 104" class="cls-1" d="M116.838,208c4.9-2.749,12.13-13.837,13.615-24.846-7.674,3.322-13.029,10.1-13.85,20.52-1.3-8.495-3.909-16.455-12.1-23.856C103.34,193.318,110.4,205.656,116.838,208Z" transform="translate(-102.91 -107.909)"/>
      <path id="Path_105" data-name="Path 105" class="cls-1" d="M116.225,190.494c4.886-1.642,13.38-10.853,15.882-21.745-7.7,2.5-13.25,7.817-15.53,18.084,0-9.628-2.15-16.937-8.625-24.273C105.307,175.5,111.235,187.64,116.225,190.494Z" transform="translate(-102.024 -113.137)"/>
      <path id="Path_106" data-name="Path 106" class="cls-1" d="M118.214,173.009c4.169-.7,13.628-7.9,17.016-18.853-7.687,1.824-13.029,6.124-16.364,15.791,1.068-10.605-.951-16.937-5.876-23.947C109.263,158.039,114.136,170.025,118.214,173.009Z" transform="translate(-100.703 -118.153)"/>
      <path id="Path_107" data-name="Path 107" class="cls-1" d="M175.208,257.87c.221,4.208,4.964,19.713,17.511,23.856-12.482.834-26.318,10.892-28.3,13.029,15.817,3.726,33.184-1.068,38-12.338C197.747,271.576,185.084,262.964,175.208,257.87Z" transform="translate(-84.723 -84.269)"/>
      <path id="Path_108" data-name="Path 108" class="cls-1" d="M120.831,158.77c7.817-3.661,9.667-15.635,8.417-24.82C121.652,139.318,116.258,150.953,120.831,158.77Z" transform="translate(-98.435 -121.802)"/>
      <path id="Path_109" data-name="Path 109" class="cls-1" d="M255.52,280.982c2.137-10.723,13.784-22.344,21.758-28.442.482,4.3-1.381,19.621-13.211,26.057,11.582-1.615,26.774,4.951,29.419,6.814C280.17,291.613,262.66,291.118,255.52,280.982Z" transform="translate(-57.132 -85.885)"/>
      <path id="Path_110" data-name="Path 110" class="cls-1" d="M271,276.19c.3-10.2,9.576-24.025,15.83-30.93,1.238,4.352,2.111,18.839-8.651,27.36,11.9-4.3,26.826-.73,29.458.378C295.859,281.949,279.078,284.294,271,276.19Z" transform="translate(-52.443 -88.089)"/>
      <path id="Path_111" data-name="Path 111" class="cls-1" d="M285.675,267.916c-1.537-9.628,4.755-25.054,9.3-32.416,3.583,7.335,3.622,19.7-3.635,27.895,11.139-6.931,25.158-6.8,28.155-6.345C309.622,268.632,294.235,273.583,285.675,267.916Z" transform="translate(-48.07 -91.046)"/>
      <path id="Path_112" data-name="Path 112" class="cls-1" d="M298.465,256.362c-3.166-8.377-.417-24.312,2.958-32.572,2.762,3.909,7.987,15.765,1.133,27.543a44.181,44.181,0,0,1,25.549-12.208C320.431,252.831,306.673,259.489,298.465,256.362Z" transform="translate(-44.548 -94.592)"/>
      <path id="Path_113" data-name="Path 113" class="cls-1" d="M308.687,242.006c-4.586-7.322-3.635-23.556-2.449-30.4,5.107,4.508,9.251,13.029,6.749,22.032,5.068-7.335,15.973-13.354,19.7-14.709C328.373,234.489,316.23,243.166,308.687,242.006Z" transform="translate(-42.067 -98.281)"/>
      <path id="Path_114" data-name="Path 114" class="cls-1" d="M317.27,225.093c-4.508-4.339-9.433-17.485-9.55-27.973,7.257,4.312,12.169,12.482,10.853,23.126,3.1-8.456,8.052-16.573,16.612-22.149C334.286,212.781,324.84,224.324,317.27,225.093Z" transform="translate(-41.322 -102.669)"/>
      <path id="Path_115" data-name="Path 115" class="cls-1" d="M321.225,208c-4.9-2.749-12.13-13.837-13.615-24.846,7.674,3.322,13.029,10.1,13.85,20.52,1.3-8.495,3.909-16.455,12.1-23.856C334.723,193.318,327.661,205.656,321.225,208Z" transform="translate(-41.354 -107.909)"/>
      <path id="Path_116" data-name="Path 116" class="cls-1" d="M321.542,190.494c-4.886-1.642-13.38-10.853-15.882-21.745,7.7,2.5,13.25,7.817,15.53,18.084,0-9.628,2.15-16.937,8.625-24.273C332.46,175.5,326.532,187.64,321.542,190.494Z" transform="translate(-41.945 -113.137)"/>
      <path id="Path_117" data-name="Path 117" class="cls-1" d="M319.266,173.009c-4.169-.7-13.628-7.9-17.016-18.853,7.687,1.824,13.029,6.124,16.364,15.791-1.068-10.605.951-16.937,5.876-23.947C328.216,158.039,323.343,170.025,319.266,173.009Z" transform="translate(-42.978 -118.153)"/>
      <path id="Path_118" data-name="Path 118" class="cls-1" d="M265.627,257.87c-.221,4.208-4.964,19.713-17.511,23.856,12.482.834,26.318,10.892,28.3,13.029-15.817,3.726-33.184-1.068-38-12.338C243.087,271.576,255.751,262.964,265.627,257.87Z" transform="translate(-62.314 -84.269)"/>
      <path id="Path_119" data-name="Path 119" class="cls-1" d="M313.6,158.77c-7.752-3.661-9.667-15.635-8.417-24.82C312.778,139.318,318.172,150.953,313.6,158.77Z" transform="translate(-42.197 -121.802)"/>
      <path id="Path_120" data-name="Path 120" class="cls-1" d="M218.221,266.51l3.648,7.4,8.143,1.186-5.889,5.746,1.394,8.13-7.3-3.844-7.283,3.844,1.394-8.13-5.9-5.746,8.143-1.186Z" transform="translate(-71.999 -81.653)"/>
      <path id="Path_121" data-name="Path 121" class="cls-1" d="M245.787,276.209a24.2,24.2,0,1,1-48.408-.391,15.5,15.5,0,0,1,.071-1.668,26.422,26.422,0,1,0,48.285.391C245.787,275.088,245.787,275.648,245.787,276.209Z" transform="translate(-75.436 -79.339)"/>
      <path id="Path_122" data-name="Path 122" class="cls-1" d="M177.4,154.363c-26.969-.925-43.386,33.028-25.966,56.141-17.289,22.931-1.212,57.066,25.966,56.128,2.306,16.638,14.24,29.706,28.663,29.706,16.065,0,29.132-16.012,29.132-35.686V160.291c0-15.2-7.817-28.181-18.787-33.314C198.882,118.846,180.407,132.735,177.4,154.363Zm49.249,5.98V207.82H191.937a7.426,7.426,0,0,0-14.332,2.684c0,8.208,11.4,10.319,14.332,2.671h34.708v39.62H214.008a7.426,7.426,0,0,0-14.332,2.684c0,8.208,11.4,10.319,14.332,2.671h12.638v2.462c0,14.944-9.224,27.113-20.559,27.113-9.3,0-17.146-8.208-19.673-19.387V234.32H201.7a7.439,7.439,0,1,0,0-5.355H181.058v28.663c-15.1,3.062-28.22-9.68-28.22-25.523a26.839,26.839,0,0,1,10.631-21.6,26.436,26.436,0,0,1-9.967-15.635h10.866v37.34c-7.661,2.97-5.511,14.332,2.684,14.332s10.319-11.4,2.606-14.332V194.817h37.119c2.971,7.661,14.332,5.524,14.332-2.671a7.439,7.439,0,0,0-4.769-6.931V137.008c6.189,4.664,10.306,13.368,10.306,23.282Zm-15.634,2.4v22.475a7.414,7.414,0,0,0-4.247,4.247H194.322V182.7c7.674-2.971,5.5-14.332-2.684-14.332s-10.345,11.4-2.684,14.332v6.762h-36.09c-.4-19.048,17.393-31.686,32.963-24.559-2.436-19,10.632-35.647,25.25-30.826Z" transform="translate(-90.834 -124.626)"/>
      <path id="Path_123" data-name="Path 123" class="cls-1" d="M277.1,266.6c28.116.651,42.773-33.875,25.966-56.141a35.842,35.842,0,0,0,7.14-21.537c0-19.139-14.749-35.008-33.106-34.526a40.959,40.959,0,0,0-3.661-12.169c-15.152-31.269-54.173-17.771-54.173,18.149V260.695c0,20.677,13.993,35.673,29.132,35.673C262.8,296.289,274.759,283.43,277.1,266.6Zm-49.262-6.019V213.14h34.709c2.971,7.661,14.332,5.524,14.332-2.684s-11.4-10.345-14.332-2.671H227.843V168.074h12.638c2.971,7.661,14.332,5.524,14.332-2.671s-11.413-10.332-14.332-2.684H227.843v-2.462c0-14.944,9.224-27.113,20.559-27.113,9.3,0,17.146,8.208,19.673,19.387v34.057H252.793c-2.971-7.661-14.332-5.524-14.332,2.671s11.387,10.358,14.332,2.684h20.651V163.279c15.152-3.023,28.207,9.8,28.207,25.641a26.84,26.84,0,0,1-10.618,21.6A26.448,26.448,0,0,1,301,226.156H290.134V188.8a7.452,7.452,0,1,0-5.355,0v37.34H247.66c-2.971-7.674-14.332-5.524-14.332,2.671a7.439,7.439,0,0,0,4.769,6.931v48.206C231.947,279.287,227.843,270.584,227.843,260.578Zm15.634-24.872a7.413,7.413,0,0,0,4.247-4.247H260.18v6.762c-7.687,2.984-5.511,14.332,2.606,14.332s10.345-11.4,2.684-14.332v-6.762h36.155c.4,19.061-17.393,31.673-32.963,24.559,2.463,19.217-10.814,35.608-25.25,30.826Z" transform="translate(-68.11 -124.591)"/>
    </g>
    <text id="PIAIC" class="cls-2" transform="translate(4497.156 13129.439)"><tspan x="0" y="0">PIAIC</tspan></text>
  </g>
</svg>
