<svg id="Group_28" data-name="Group 28" xmlns="http://www.w3.org/2000/svg" viewBox="0 0 60.155 38.354">
  <defs>
    <style>
      .cls-1, .cls-2 {
        fill: #fff;
      }

      .cls-1 {
        fill-rule: evenodd;
      }
    </style>
  </defs>
  <path id="path12594_1_" class="cls-1" d="M10.932,37.989l-1.64-3.826a5.085,5.085,0,0,0,2.46-6.65c-.44,1.7-1.913,3.188-3.553,4.647l-.638-.091.273-2.915-.912.547L7.1,27.513c3.643-.857,3.418-3.479,3.553-5.74a14.163,14.163,0,0,1-4.282,4.1l-.456-.729,1.093-2.187-1.093.456L6.1,21.591a10.382,10.382,0,0,0,4.1-1.731,3.6,3.6,0,0,0,1.093-2.825c-1.145,1.2-3.286,1.909-5.375,2.642l-.091-.456,2.095-2.278-1.457.365.819-2.369a7.587,7.587,0,0,0,3.826-.273,6.261,6.261,0,0,0,2.551-2.551c-1.572.622-3.02.307-4.828.456l2.187-1.549h-.912L11.2,9.11a4.467,4.467,0,0,0,2.825.82,8.327,8.327,0,0,0,3.279-1.457,7.578,7.578,0,0,1-4.919-.729c.506-.923,1.529-1.2,3.006-.912L14.3,6.286l1.184-.638a3.967,3.967,0,0,0,2.46,1,5.561,5.561,0,0,0,2.825-.729C16.822,5.985,15.556,4.649,15.851,0a1.721,1.721,0,0,0-1.457,1.275,10.9,10.9,0,0,0,0,3.553l-.819.547-.182-.729-.456,1.184-1,1.275-1-1.731-.091-2.369A2.679,2.679,0,0,0,9.292,5.1,10.7,10.7,0,0,0,10.2,9.11l-.729.729L9.11,8.745,8.746,10.75l-.729,1.275c-1.5-1.146-2.905-2.33-2.734-4.191a4.715,4.715,0,0,0-.82,3.188,5.3,5.3,0,0,0,1.822,2.915L6.2,15.4H5.375L5.1,14.667l.091,2.095-.182,2.187a6.331,6.331,0,0,1-3.735-3.735,5.92,5.92,0,0,0,.091,3.918c.843,1.617,3.279,2.551,3.279,2.551l-.182,1.093-1-.547,1.093,3.1C1.733,25.381.94,24.17,0,23.048a5.631,5.631,0,0,0,1.275,3.462,6.314,6.314,0,0,0,3.644,1.184l.547,1.64L4.191,28.97l2.278,2.825c-2.248-.216-5-.146-5.648-1.275a5.311,5.311,0,0,0,2,3.006,8.212,8.212,0,0,0,4.1.729l3.279,4.1.729-.365"/>
  <path id="path7138_1_" class="cls-1" d="M352.036,37.989l1.64-3.826a5.085,5.085,0,0,1-2.46-6.65c.44,1.7,1.913,3.188,3.553,4.647l.638-.091-.273-2.915.912.547-.182-2.187c-3.643-.857-3.418-3.479-3.553-5.74a14.162,14.162,0,0,0,4.282,4.1l.456-.729-1.093-2.187,1.093.456-.182-1.822a10.382,10.382,0,0,1-4.1-1.731,3.6,3.6,0,0,1-1.093-2.825c1.145,1.2,3.286,1.909,5.375,2.642l.091-.456-2.095-2.278,1.457.365-.819-2.369a7.587,7.587,0,0,1-3.826-.273,6.261,6.261,0,0,1-2.551-2.551c1.572.622,3.02.307,4.828.456l-2.187-1.549h.912L351.766,9.11a4.466,4.466,0,0,1-2.824.82,8.327,8.327,0,0,1-3.279-1.457,7.578,7.578,0,0,0,4.919-.729c-.506-.923-1.529-1.2-3.006-.912l1.093-.547-1.184-.638a3.966,3.966,0,0,1-2.46,1,5.561,5.561,0,0,1-2.825-.729c3.948.063,5.213-1.273,4.917-5.922a1.721,1.721,0,0,1,1.457,1.275,10.861,10.861,0,0,1,0,3.553l.82.547.182-.729.456,1.184,1,1.275,1-1.731.091-2.369A2.679,2.679,0,0,1,353.677,5.1a10.7,10.7,0,0,1-.912,4.009l.729.729.365-1.093.365,2,.729,1.275c1.5-1.146,2.905-2.33,2.734-4.191a4.715,4.715,0,0,1,.82,3.188,5.3,5.3,0,0,1-1.822,2.915l.091,1.457h.819l.273-.729-.091,2.095.182,2.187a6.331,6.331,0,0,0,3.735-3.735,5.921,5.921,0,0,1-.091,3.918c-.842,1.617-3.279,2.551-3.279,2.551l.182,1.093,1-.547-1.093,3.1c2.822.055,3.615-1.157,4.556-2.278a5.631,5.631,0,0,1-1.275,3.462,6.314,6.314,0,0,1-3.644,1.184l-.547,1.64,1.275-.365L356.5,31.794c2.248-.216,5-.146,5.648-1.275a5.311,5.311,0,0,1-2,3.006,8.212,8.212,0,0,1-4.1.729l-3.279,4.1-.729-.364" transform="translate(-302.813)"/>
  <path id="path12592_1_" class="cls-1" d="M175.274,82.113c-10.687,9.566-32.3-3.285-17.878-20.883C133.091,72.861,158.42,105.323,175.274,82.113Z" transform="translate(-130.392 -54.183)"/>
  <path id="path12597_1_" class="cls-2" d="M302.956,99.4l1.569-2.781,3.12.681-2.16-2.351L307.1,92.2l-2.9,1.328-2.124-2.385.366,3.172L299.51,95.6l3.13.633S302.956,99.4,302.956,99.4Z" transform="translate(-265.037 -80.65)"/>
</svg>
